# xmcd
#
# Track frame offsets:
# 150
# 12666
# 28907
# 42704
#
# Disc length: 809 seconds
#
#
# Revision: 0
# Processed by: cddbd v1.5PL3 Copyright (c) Steve Scherf et al.
# Submitted via: FreeRIP 2.70 
#
DISCID=35032704
DTITLE=Coyote Joe - Limited Release
DYEAR=1900
DGENRE=Country
TTITLE0=Hurricane Aimee
TTITLE1=The Campfire Song
TTITLE2=Little Teardrops
TTITLE3=Rainbow Motel
EXTD=
EXTT0=
EXTT1=
EXTT2=
EXTT3=
PLAYORDER=
